<svg width="139" height="59" viewBox="0 0 139 59" fill="none" xmlns="http://www.w3.org/2000/svg">
<path d="M123.384 22.106C125.174 22.339 126.652 23.04 127.664 24.13C128.676 25.22 129.143 26.698 128.987 28.644C128.91 30.123 128.365 31.446 127.431 32.613C126.575 33.78 125.329 34.714 123.928 35.493C122.45 36.271 120.893 36.816 119.103 37.127C117.391 37.516 115.523 37.594 113.732 37.438C112.565 37.36 111.32 37.049 110.23 36.66C109.063 36.271 108.129 35.726 107.272 35.026C106.416 34.325 105.794 33.547 105.327 32.613C104.86 31.679 104.704 30.667 104.782 29.578C104.937 28.099 105.482 26.854 106.416 25.842C107.35 24.83 108.596 24.519 109.14 24.519C110.152 24.441 110.697 24.519 111.242 24.675C111.553 24.986 111.709 25.375 111.164 25.92V26.076C110.152 26.387 109.296 27.243 108.673 27.788C108.362 28.021 107.895 29.267 107.739 30.979C107.583 32.769 108.128 34.17 109.296 35.182C110.541 36.194 112.098 36.739 113.965 36.894C115.366 37.05 116.767 36.972 118.091 36.583C119.414 36.194 120.659 35.649 121.749 34.949C122.838 34.171 123.772 33.237 124.473 32.147C125.173 30.979 125.562 29.734 125.718 28.255C125.874 26.62 125.485 25.297 124.628 24.286C123.772 23.274 122.527 22.729 120.815 22.574C120.348 22.496 119.803 22.496 119.258 22.496C118.713 22.418 118.168 22.496 117.624 22.496V22.418C117.624 22.185 117.702 21.873 117.702 21.562L117.624 21.639C118.558 21.561 119.57 21.561 120.659 21.561C121.749 21.561 122.917 21.561 124.006 21.483C125.174 21.405 126.185 21.249 127.275 21.016C128.365 20.705 129.299 20.393 130.155 19.849C131.011 19.382 131.712 18.682 132.256 17.825C132.801 16.969 133.19 15.879 133.268 14.556C133.346 13.077 133.113 11.832 132.412 10.742C131.712 9.65199 130.622 9.10799 129.065 8.95199C128.365 8.87399 127.664 8.95199 126.886 9.10799C126.108 9.26399 125.485 9.49699 124.862 9.88599C124.318 10.275 123.773 10.742 123.384 11.365C122.994 11.91 122.761 12.61 122.683 13.389C122.605 14.245 122.761 15.023 123.15 15.724C123.461 16.424 124.162 16.814 125.018 16.891C125.329 17.358 125.019 17.903 124.24 18.526L124.239 18.448C123.383 18.681 122.682 18.681 122.06 18.448C121.748 18.37 121.515 18.215 120.97 17.436C120.425 16.735 120.192 15.802 120.269 14.868C120.347 13.856 120.659 12.922 121.203 12.066C121.748 11.21 122.527 10.432 123.383 9.80899C124.317 9.18599 125.251 8.71899 126.418 8.40799C127.508 8.09699 128.753 8.01899 129.998 8.09699C131.244 8.25299 132.256 8.48599 133.112 8.87499C133.968 9.26399 134.668 9.73099 135.213 10.354C135.758 10.977 136.147 11.677 136.381 12.455C136.614 13.233 136.692 14.012 136.614 14.868C136.536 16.191 136.069 17.359 135.213 18.215C134.357 19.071 133.345 19.772 132.1 20.316C130.855 20.783 129.531 21.25 127.975 21.483C126.496 21.717 124.939 21.872 123.461 21.95" fill="black"/>
<path d="M123.384 22.106C125.174 22.339 126.652 23.04 127.664 24.13C128.676 25.22 129.143 26.698 128.987 28.644C128.91 30.123 128.365 31.446 127.431 32.613C126.575 33.78 125.329 34.714 123.928 35.493C122.45 36.271 120.893 36.816 119.103 37.127C117.391 37.516 115.523 37.594 113.732 37.438C112.565 37.36 111.32 37.049 110.23 36.66C109.063 36.271 108.129 35.726 107.272 35.026C106.416 34.325 105.794 33.547 105.327 32.613C104.86 31.679 104.704 30.667 104.782 29.578C104.937 28.099 105.482 26.854 106.416 25.842C107.35 24.83 108.596 24.519 109.14 24.519C110.152 24.441 110.697 24.519 111.242 24.675C111.553 24.986 111.709 25.375 111.164 25.92V26.076C110.152 26.387 109.296 27.243 108.673 27.788C108.362 28.021 107.895 29.267 107.739 30.979C107.583 32.769 108.128 34.17 109.296 35.182C110.541 36.194 112.098 36.739 113.965 36.894C115.366 37.05 116.767 36.972 118.091 36.583C119.414 36.194 120.659 35.649 121.749 34.949C122.838 34.171 123.772 33.237 124.473 32.147C125.173 30.979 125.562 29.734 125.718 28.255C125.874 26.62 125.485 25.297 124.628 24.286C123.772 23.274 122.527 22.729 120.815 22.574C120.348 22.496 119.803 22.496 119.258 22.496C118.713 22.418 118.168 22.496 117.624 22.496V22.418C117.624 22.185 117.702 21.873 117.702 21.562L117.624 21.639C118.558 21.561 119.57 21.561 120.659 21.561C121.749 21.561 122.917 21.561 124.006 21.483C125.174 21.405 126.185 21.249 127.275 21.016C128.365 20.705 129.299 20.393 130.155 19.849C131.011 19.382 131.712 18.682 132.256 17.825C132.801 16.969 133.19 15.879 133.268 14.556C133.346 13.077 133.113 11.832 132.412 10.742C131.712 9.65199 130.622 9.10799 129.065 8.95199C128.365 8.87399 127.664 8.95199 126.886 9.10799C126.108 9.26399 125.485 9.49699 124.862 9.88599C124.318 10.275 123.773 10.742 123.384 11.365C122.994 11.91 122.761 12.61 122.683 13.389C122.605 14.245 122.761 15.023 123.15 15.724C123.461 16.424 124.162 16.814 125.018 16.891C125.329 17.358 125.019 17.903 124.24 18.526L124.239 18.448C123.383 18.681 122.682 18.681 122.06 18.448C121.748 18.37 121.515 18.215 120.97 17.436C120.425 16.735 120.192 15.802 120.269 14.868C120.347 13.856 120.659 12.922 121.203 12.066C121.748 11.21 122.527 10.432 123.383 9.80899C124.317 9.18599 125.251 8.71899 126.418 8.40799C127.508 8.09699 128.753 8.01899 129.998 8.09699C131.244 8.25299 132.256 8.48599 133.112 8.87499C133.968 9.26399 134.668 9.73099 135.213 10.354C135.758 10.977 136.147 11.677 136.381 12.455C136.614 13.233 136.692 14.012 136.614 14.868C136.536 16.191 136.069 17.359 135.213 18.215C134.357 19.071 133.345 19.772 132.1 20.316C130.855 20.783 129.531 21.25 127.975 21.483C126.496 21.717 124.939 21.872 123.461 21.95" stroke="black" stroke-width="0.9661" stroke-linecap="round" stroke-linejoin="round"/>
<path d="M115.834 7.78601C113.032 9.57601 109.996 11.288 106.805 12.767C103.614 14.246 100.267 15.258 96.843 15.802C96.921 16.036 96.921 16.191 96.999 16.425H97.077C98.089 16.269 99.101 16.036 100.19 15.724C101.28 15.413 102.292 15.101 103.382 14.79C104.471 14.401 105.483 14.012 106.417 13.623C107.351 13.234 108.285 12.767 109.141 12.3H109.063C109.063 12.378 109.142 12.378 109.142 12.456H109.218L89.604 37.517H89.671H94.755H94.82C94.742 36.739 95.053 36.116 95.443 35.415C96.61 33.547 98.089 31.446 99.879 29.033C101.669 26.62 103.537 24.13 105.483 21.639C107.428 19.148 109.296 16.658 111.242 14.245C113.11 11.832 114.745 9.80901 116.145 8.01801L115.834 7.78601Z" fill="black"/>
<path d="M115.834 7.78601C113.032 9.57601 109.996 11.288 106.805 12.767C103.614 14.246 100.267 15.258 96.843 15.802C96.921 16.036 96.921 16.191 96.999 16.425H97.077C98.089 16.269 99.101 16.036 100.19 15.724C101.28 15.413 102.292 15.101 103.382 14.79C104.471 14.401 105.483 14.012 106.417 13.623C107.351 13.234 108.285 12.767 109.141 12.3H109.063C109.063 12.378 109.142 12.378 109.142 12.456H109.218L89.604 37.517H89.671H94.755H94.82C94.742 36.739 95.053 36.116 95.443 35.415C96.61 33.547 98.089 31.446 99.879 29.033C101.669 26.62 103.537 24.13 105.483 21.639C107.428 19.148 109.296 16.658 111.242 14.245C113.11 11.832 114.745 9.80901 116.145 8.01801L115.834 7.78601Z" stroke="black" stroke-width="0.9661" stroke-linecap="round" stroke-linejoin="round"/>
<path d="M9.76198 13.934C9.83998 14.479 11.15 14.635 11.85 14.401C11.694 13.934 12.084 13.467 12.395 13.077C12.862 12.376 13.251 11.754 13.796 11.131C14.574 10.119 15.508 9.26297 16.52 8.48497C17.22 7.93997 17.921 7.39498 18.699 6.85098C19.555 6.22798 20.489 5.68398 21.345 5.21698C23.135 4.28298 25.081 3.58298 27.105 3.11598C29.051 2.72698 31.152 2.64898 33.176 2.72698C35.2 2.88298 37.145 3.19398 39.091 3.81698C40.959 4.36198 42.749 5.13998 44.15 6.15198C45.084 6.85198 45.94 7.55298 46.719 8.48698V8.56497C45.474 9.42097 44.306 10.433 43.139 11.445C41.972 12.535 40.804 13.391 39.714 14.325C38.624 15.337 37.457 16.349 36.367 17.516C34.499 19.384 32.709 21.485 30.997 23.665C29.674 25.3 28.506 27.012 27.261 28.958C26.327 30.359 25.393 31.838 24.537 33.161C23.37 35.029 22.28 36.352 20.723 38.454C19.945 39.466 19.166 40.555 18.388 41.489C17.532 42.579 16.754 43.435 15.897 44.291C14.574 45.692 13.173 47.015 11.772 48.26C8.81398 50.906 5.70098 53.241 2.50998 55.498H2.43298C2.27698 56.276 2.27698 56.821 3.21098 56.588C13.64 49.35 18.388 43.824 26.016 33.861C32.554 25.299 38.391 16.349 47.342 9.65497H47.419C47.653 9.96597 47.808 10.278 47.964 10.667C48.12 10.978 48.275 11.29 48.353 11.601C48.509 12.068 48.664 12.613 48.742 13.158C48.82 13.625 48.82 14.17 48.82 14.715C48.742 15.26 48.664 15.727 48.509 16.272C48.276 17.05 47.964 17.673 47.497 18.14C47.108 18.529 46.641 18.918 46.096 19.23L46.174 19.152C45.007 18.841 43.917 18.607 42.749 18.685C42.126 18.685 41.582 18.841 41.037 18.996C40.648 19.152 39.792 19.541 39.87 20.086C40.103 21.409 41.971 21.253 42.828 21.176C43.995 21.098 45.085 20.865 46.175 20.398L46.252 20.476C46.33 20.476 46.33 20.554 46.408 20.554C46.953 20.865 47.498 21.255 47.965 21.644C48.51 22.189 48.899 22.811 49.21 23.434C50.222 25.691 49.911 28.804 48.821 31.295C48.354 32.385 47.731 33.319 47.031 34.175L46.954 34.097C46.02 34.175 45.008 34.253 44.074 34.331C42.517 34.487 40.883 34.72 39.482 35.187C39.015 35.343 38.626 35.498 38.159 35.81C37.614 36.277 37.069 36.9 37.147 37.522C37.225 37.833 37.458 38.145 37.77 38.378C38.004 38.611 38.315 38.689 38.626 38.767C42.518 39.156 45.163 37.911 47.965 35.342H48.043C48.432 35.342 48.899 35.342 49.288 35.342C50.066 35.342 50.922 35.342 51.701 35.42C51.701 35.654 51.779 35.887 51.857 36.121C52.013 36.588 52.402 36.899 52.869 37.133C53.336 37.367 53.959 37.522 54.426 37.444V37.522C54.504 37.522 54.504 37.522 54.582 37.522C54.893 37.522 55.127 37.444 55.36 37.366C55.671 37.288 55.983 37.132 56.372 36.977C56.761 36.821 57.073 36.588 57.384 36.432C57.695 36.276 58.007 36.043 58.24 35.809C58.707 35.498 59.096 35.186 59.563 34.797C59.641 34.719 59.719 34.641 59.797 34.564L59.798 34.642C59.798 35.42 59.798 36.199 60.421 36.899C61.199 37.677 61.9 37.288 62.678 36.977C63.845 36.199 64.935 35.42 65.947 34.564C66.57 34.097 67.114 33.552 67.659 33.007C68.204 32.54 68.671 31.995 69.216 31.45C69.683 30.905 70.15 30.438 70.617 29.893C71.006 29.426 71.395 29.037 71.784 28.57C71.862 28.492 71.862 28.492 71.94 28.414C72.329 28.492 72.718 28.492 73.107 28.492C73.341 28.492 73.574 28.492 73.885 28.492C73.34 29.192 72.795 29.893 72.251 30.593C71.706 31.371 71.083 32.072 70.539 32.928C70.072 33.706 69.605 34.562 69.449 35.574C69.371 36.274 69.371 37.053 69.838 37.364C70.149 37.675 70.772 37.675 71.239 37.675C71.862 37.597 72.329 37.364 72.796 37.13C73.963 36.585 75.053 35.885 76.065 35.028C76.065 35.106 76.066 35.105 76.066 35.183C76.066 35.494 76.066 35.884 76.222 36.195C76.378 36.662 76.767 36.973 77.234 37.207C77.701 37.441 78.324 37.596 78.791 37.518C78.869 37.518 78.867 37.518 78.945 37.518C79.256 37.518 79.49 37.44 79.723 37.362C80.034 37.284 80.346 37.129 80.735 36.973C81.124 36.817 81.435 36.584 81.747 36.428C82.058 36.272 82.37 36.039 82.603 35.805C83.07 35.494 83.459 35.182 83.926 34.793C84.393 34.404 84.86 34.015 85.327 33.548C85.716 33.159 86.183 32.77 86.572 32.303C86.806 31.992 87.039 31.758 87.273 31.447C87.429 31.214 87.584 30.98 87.74 30.746C87.818 30.59 87.973 30.357 88.051 30.201C88.129 30.045 88.207 29.89 88.207 29.656C88.285 29.423 88.285 29.189 88.285 28.956C88.285 28.723 88.207 28.489 88.129 28.333C87.973 28.022 87.818 27.788 87.584 27.633C87.428 27.477 87.273 27.399 87.117 27.322L87.118 27.4C86.651 27.167 86.028 26.933 85.484 26.933C84.94 26.933 84.394 27.011 83.85 27.166C83.305 27.322 82.76 27.477 82.293 27.711C81.904 27.944 81.515 28.178 81.126 28.489C80.114 29.267 79.18 30.123 78.324 31.057C78.013 31.368 77.823 31.684 77.545 32.069C76.3 33.47 75.21 34.871 73.42 35.805C72.953 36.038 72.564 36.194 72.097 36.35C71.708 36.506 70.929 36.817 70.929 36.194C70.851 35.649 72.019 34.17 72.252 33.781C73.342 32.224 74.587 30.823 75.988 29.578C76.377 29.267 76.688 28.955 76.533 28.411C76.377 27.788 76.066 27.633 75.521 27.477C74.587 27.244 73.653 27.399 72.719 27.321C72.719 27.243 72.796 27.243 72.796 27.165C73.185 26.542 73.574 25.92 73.963 25.297C74.041 25.219 74.041 25.064 74.119 24.986C74.742 23.819 74.82 22.807 74.275 22.495C74.042 22.339 73.574 22.339 73.185 22.495C72.407 22.651 71.628 23.195 71.083 23.818C70.616 24.285 70.227 24.752 70.071 25.375C69.837 25.998 69.837 26.698 70.149 27.243C70.305 27.554 70.475 27.725 70.709 27.958C68.063 31.227 65.325 33.937 61.822 36.194C61.199 36.194 61.355 35.727 61.433 35.338C61.511 35.027 61.666 34.637 61.822 34.326C62.133 33.626 62.6 33.081 63.067 32.458C64.001 31.29 64.935 30.201 65.947 29.033L67.349 27.476L64.703 27.398C64.158 28.176 63.535 29.189 62.523 30.356C62.367 30.589 62.212 30.745 62.056 30.979C61.044 32.302 59.721 33.547 57.775 34.871C57.308 35.182 56.763 35.571 56.296 35.805C55.829 36.039 55.44 36.272 55.129 36.35C54.818 36.428 54.506 36.428 54.273 36.428C54.04 36.35 53.806 36.272 53.728 36.039C53.572 35.728 53.806 35.105 54.117 34.56C54.662 33.548 55.362 32.614 56.063 31.758C57.386 30.279 58.787 29.112 60.188 28.333C60.188 28.255 60.266 28.255 60.266 28.255C61.044 28.255 59.877 27.554 59.41 27.477C58.865 27.399 58.374 27.384 57.829 27.54L57.694 27.576L56.685 28.256C55.907 28.879 55.206 29.501 54.428 30.435C53.805 31.135 53.105 32.069 52.716 32.848C52.405 33.315 52.249 33.704 52.016 34.171C52.016 34.249 51.545 34.396 51.378 34.405C50.522 34.327 50.149 34.249 49.215 34.249C53.574 29.423 53.184 23.508 47.658 19.772C51.861 17.126 51.705 12.145 48.981 8.56398C49.682 8.09698 50.225 7.62998 51.082 7.47498C51.549 6.61898 51.393 6.30798 50.849 6.15198C50.46 6.22998 50.15 6.38498 49.761 6.54098C49.372 6.77398 48.983 6.92998 48.671 7.16398C48.515 7.31998 48.282 7.39698 48.126 7.55298C43.3 2.64998 34.194 0.703975 27.812 1.71598C21.736 2.64898 12.097 7.70798 9.76198 13.934Z" stroke="black" stroke-width="0.9661" stroke-linecap="round" stroke-linejoin="round"/>
<path d="M88.125 28.333C87.969 28.022 87.814 27.788 87.58 27.633C87.424 27.477 87.269 27.399 87.113 27.322L87.114 27.4C86.647 27.166 86.024 26.933 85.48 26.933C84.936 26.933 84.39 27.011 83.845 27.166C83.3 27.322 82.755 27.477 82.288 27.711C81.899 27.945 81.51 28.178 81.121 28.489C80.109 29.267 79.175 30.123 78.319 31.057C78.008 31.368 77.818 31.684 77.54 32.069C76.295 33.47 75.205 34.871 73.415 35.805C72.948 36.039 72.559 36.194 72.092 36.35C71.703 36.506 70.925 36.817 70.925 36.194C70.847 35.649 72.015 34.17 72.248 33.781C73.338 32.224 74.583 30.823 75.984 29.578C76.373 29.267 76.685 28.955 76.529 28.411C76.373 27.788 76.062 27.633 75.517 27.477C74.583 27.243 73.649 27.399 72.715 27.321C72.715 27.243 72.792 27.243 72.792 27.165C73.181 26.542 73.57 25.92 73.959 25.297C74.037 25.219 74.037 25.063 74.115 24.986C74.738 23.818 74.816 22.807 74.271 22.495C74.038 22.339 73.57 22.339 73.181 22.495C72.403 22.651 71.624 23.195 71.079 23.818C70.612 24.285 70.223 24.752 70.067 25.375C69.833 25.998 69.833 26.698 70.145 27.243C70.301 27.554 70.471 27.725 70.705 27.958C68.059 31.227 65.321 33.937 61.818 36.194C61.195 36.194 61.351 35.727 61.429 35.338C61.507 35.027 61.663 34.637 61.818 34.326C62.129 33.626 62.596 33.081 63.063 32.458C63.997 31.29 64.931 30.201 65.943 29.033L67.345 27.476L64.699 27.398C64.154 28.176 63.531 29.188 62.519 30.356C62.363 30.589 62.208 30.745 62.052 30.979C61.04 32.302 59.717 33.547 57.771 34.871C57.304 35.182 56.759 35.571 56.292 35.805C55.825 36.039 55.436 36.272 55.125 36.35C54.814 36.428 54.502 36.428 54.269 36.428C54.035 36.35 53.802 36.272 53.724 36.039C53.568 35.728 53.802 35.105 54.113 34.56C54.658 33.548 55.358 32.614 56.059 31.758C57.382 30.279 58.783 29.112 60.184 28.333C60.184 28.255 60.262 28.255 60.262 28.255C61.04 28.255 59.873 27.554 59.406 27.477C58.861 27.399 58.37 27.384 57.825 27.54L57.69 27.576L56.681 28.256C55.903 28.879 55.202 29.501 54.424 30.435C53.801 31.136 53.101 32.07 52.712 32.848C52.401 33.315 52.245 33.704 52.012 34.171C52.012 34.249 51.541 34.396 51.374 34.405C50.518 34.327 50.145 34.249 49.211 34.249C53.569 29.423 53.18 23.508 47.654 19.772C51.857 17.126 51.701 12.145 48.977 8.56398C49.678 8.09698 50.222 7.62998 51.078 7.47498C51.545 6.61898 51.389 6.30798 50.845 6.15198C50.456 6.22998 50.146 6.38597 49.757 6.54098C49.368 6.77498 48.979 6.92998 48.667 7.16398C48.511 7.31998 48.278 7.39698 48.122 7.55298C43.296 2.64998 34.19 0.703975 27.808 1.71598C21.737 2.64998 12.098 7.70897 9.76298 13.936C9.84098 14.481 11.151 14.637 11.851 14.403C11.695 13.936 12.085 13.468 12.396 13.079C12.863 12.378 13.252 11.756 13.797 11.133C14.575 10.121 15.509 9.26498 16.521 8.48698C17.222 7.94198 17.922 7.39698 18.7 6.85298C19.556 6.22998 20.49 5.68598 21.346 5.21898C23.136 4.28498 25.082 3.58498 27.106 3.11698C29.052 2.72798 31.153 2.64998 33.177 2.72798C35.201 2.88398 37.146 3.19498 39.092 3.81798C40.96 4.36298 42.75 5.14097 44.151 6.15298C45.085 6.85297 45.941 7.55398 46.719 8.48798V8.56598C45.474 9.42198 44.306 10.434 43.139 11.446C41.971 12.536 40.804 13.392 39.714 14.326C38.624 15.338 37.457 16.35 36.367 17.517C34.499 19.385 32.709 21.486 30.997 23.666C29.674 25.301 28.506 27.013 27.261 28.959C26.327 30.36 25.393 31.839 24.537 33.162C23.37 35.03 22.28 36.353 20.723 38.454C19.945 39.466 19.166 40.556 18.388 41.49C17.532 42.58 16.753 43.436 15.897 44.292C14.574 45.693 13.173 47.016 11.772 48.261C8.81398 50.907 5.70098 53.242 2.50998 55.499H2.43298C2.27698 56.277 2.27698 56.822 3.21098 56.589C13.641 49.351 18.388 43.825 26.016 33.862C32.554 25.3 38.391 16.35 47.342 9.65598H47.419C47.653 9.96698 47.808 10.279 47.964 10.668C48.12 10.979 48.275 11.291 48.353 11.602C48.509 12.069 48.664 12.614 48.742 13.159C48.82 13.626 48.82 14.171 48.82 14.716C48.742 15.261 48.664 15.728 48.509 16.273C48.275 17.051 47.964 17.674 47.497 18.141C47.108 18.53 46.641 18.919 46.096 19.231L46.174 19.153C45.006 18.842 43.917 18.608 42.749 18.686C42.126 18.686 41.582 18.842 41.037 18.997C40.648 19.153 39.792 19.542 39.869 20.087C40.103 21.41 41.971 21.254 42.827 21.177C43.994 21.099 45.084 20.866 46.174 20.399L46.251 20.477C46.329 20.477 46.329 20.555 46.407 20.555C46.952 20.866 47.497 21.256 47.964 21.645C48.509 22.19 48.898 22.813 49.209 23.435C50.221 25.692 49.91 28.805 48.82 31.296C48.353 32.386 47.73 33.32 47.03 34.176L46.953 34.098C46.019 34.176 45.007 34.254 44.073 34.332C42.516 34.488 40.882 34.721 39.481 35.188C39.014 35.344 38.625 35.499 38.158 35.811C37.613 36.278 37.068 36.901 37.146 37.523C37.224 37.834 37.457 38.146 37.769 38.379C38.003 38.613 38.314 38.69 38.625 38.768C42.517 39.157 45.162 37.912 47.964 35.343H48.042C48.431 35.343 48.898 35.343 49.287 35.343C50.065 35.343 50.922 35.343 51.7 35.421C51.7 35.654 51.778 35.888 51.856 36.122C52.012 36.589 52.401 36.9 52.868 37.134C53.335 37.368 53.958 37.523 54.425 37.445V37.523C54.503 37.523 54.503 37.523 54.581 37.523C54.892 37.523 55.126 37.445 55.359 37.367C55.67 37.289 55.982 37.133 56.371 36.978C56.76 36.822 57.072 36.589 57.383 36.433C57.694 36.277 58.006 36.044 58.239 35.81C58.706 35.499 59.095 35.187 59.562 34.798C59.64 34.72 59.718 34.642 59.795 34.564L59.796 34.642C59.796 35.42 59.796 36.199 60.419 36.899C61.197 37.677 61.898 37.288 62.676 36.977C63.843 36.199 64.933 35.42 65.945 34.564C66.568 34.097 67.112 33.552 67.657 33.007C68.202 32.54 68.669 31.995 69.214 31.45C69.681 30.905 70.148 30.438 70.615 29.893C71.004 29.426 71.393 29.037 71.783 28.57C71.861 28.492 71.861 28.492 71.939 28.414C72.328 28.492 72.717 28.492 73.106 28.492C73.34 28.492 73.573 28.492 73.884 28.492C73.339 29.192 72.794 29.893 72.25 30.593C71.705 31.371 71.083 32.072 70.538 32.928C70.071 33.706 69.604 34.562 69.448 35.574C69.37 36.275 69.37 37.053 69.837 37.364C70.148 37.675 70.771 37.675 71.238 37.675C71.861 37.597 72.328 37.364 72.795 37.13C73.962 36.585 75.052 35.885 76.064 35.028C76.064 35.106 76.065 35.105 76.065 35.183C76.065 35.494 76.065 35.884 76.221 36.195C76.377 36.662 76.766 36.973 77.233 37.207C77.7 37.44 78.323 37.596 78.79 37.518C78.868 37.518 78.866 37.518 78.944 37.518C79.255 37.518 79.489 37.44 79.722 37.362C80.033 37.284 80.345 37.129 80.734 36.973C81.123 36.817 81.435 36.584 81.746 36.428C82.057 36.272 82.369 36.039 82.602 35.805C83.069 35.494 83.458 35.182 83.925 34.793C84.392 34.404 84.859 34.015 85.326 33.548C85.715 33.159 86.182 32.77 86.571 32.303C86.805 31.992 87.038 31.758 87.272 31.447C87.428 31.213 87.583 30.98 87.739 30.746C87.817 30.59 87.973 30.357 88.05 30.201C88.128 30.045 88.206 29.89 88.206 29.656C88.284 29.423 88.284 29.189 88.284 28.956C88.281 28.722 88.203 28.489 88.125 28.333ZM43.606 20.317C42.828 20.473 42.283 20.473 41.66 20.395C41.427 20.317 41.193 20.239 41.271 20.162C41.271 20.084 41.349 20.084 41.427 20.006C42.05 19.617 42.75 19.617 43.606 19.617C44.229 19.695 44.929 19.695 44.851 19.85C44.774 20.005 44.073 20.161 43.606 20.317ZM43.061 36.895C41.816 37.284 40.415 37.362 39.092 37.284C38.936 37.284 38.702 37.05 38.625 36.973C38.547 36.895 38.625 36.739 38.781 36.662C39.092 36.506 39.404 36.351 39.793 36.273C40.727 36.039 41.505 35.884 42.361 35.728C43.451 35.572 44.619 35.494 45.786 35.417C45.007 36.117 44.073 36.583 43.061 36.895ZM71.625 26.932C71.08 26.543 71.236 25.687 71.391 25.22C71.625 24.831 72.325 24.053 72.792 23.975C73.726 23.819 72.948 24.909 72.636 25.376C72.326 25.92 72.015 26.387 71.625 26.932ZM87.114 29.89C86.88 30.279 86.647 30.591 86.413 30.902C85.401 32.225 84.078 33.47 82.132 34.794C81.665 35.105 81.12 35.494 80.653 35.728C80.186 35.962 79.797 36.195 79.486 36.273C79.097 36.429 78.863 36.429 78.785 36.429C78.551 36.351 78.318 36.273 78.24 36.04C78.162 35.729 78.396 35.106 78.629 34.561C79.096 33.549 79.563 32.926 80.186 32.226C81.276 31.059 82.677 29.891 84.078 29.113C84.467 28.802 84.934 28.646 85.557 28.412C85.946 28.256 86.491 28.101 86.88 28.334C87.036 28.412 87.269 28.645 87.347 28.879C87.425 29.267 87.269 29.578 87.114 29.89Z" fill="black"/>
</svg>
